<?xml version="1.0" encoding="utf-8"?>
<!-- Uploaded to SVGRepo https://www.svgrepo.com -->
<!DOCTYPE svg PUBLIC "-//W3C//DTD SVG 1.1//EN" "http://www.w3.org/Graphics/SVG/1.1/DTD/svg11.dtd">
<svg width="1000px" height="1000px" viewBox="0 0 1000 1000" version="1.1" xmlns="http://www.w3.org/2000/svg" xmlns:xlink="http://www.w3.org/1999/xlink" x="0px" y="0px" enable-background="new 0 0 1000 1000" xml:space="preserve">

<g><g transform="translate(0.000000,358.000000) scale(0.100000,-0.100000)"><path d="M3535.1,1993.7c-440.4-24.9-974.5-91.9-1368.9-170.4c-721.8-143.6-1614-425-1704-538c-38.3-49.8-38.3-68.9-38.3-2927.4v-2879.6H314.7c-116.8-1.9-157-19.2-193.4-90c-36.4-67-26.8-120.6,32.5-180l55.5-55.5h4790.3h4790.3l55.5,55.5c59.4,59.3,68.9,105.3,34.5,180c-34.5,74.7-95.7,90-371.4,90h-258.5v440.4v442.3l47.9,46c28.7,30.6,67,47.9,105.3,47.9c40.2,0,78.5,17.2,116.8,55.5l55.5,55.5v1367c0,1501,0,1487.6-114.9,1627.4c-30.6,38.3-97.6,90-147.4,114.9c-90,44-103.4,44-742.9,49.8c-495.9,3.8-662.5-1.9-698.8-19.2c-30.6-17.2-82.3-93.8-147.4-216.3c-95.7-183.8-99.6-197.2-101.5-344.6v-155.1L7477.3-1152c-118.7-118.7-162.7-180-248.9-348.5L7125-1707.2v-323.6v-323.6l-214.4,55.5c-273.8,68.9-315.9,68.9-459.5-3.8l-116.8-59.4l-222.1,222.1c-202.9,201-229.7,222.1-292.9,222.1c-90,0-147.4-49.8-162.7-139.8l-11.5-72.8l294.9-296.8c344.6-342.7,333.1-338.9,568.6-220.2l149.3,74.7l315.9-78.5c484.4-118.7,476.7-126.4,476.7,465.3v402.1l65.1,130.2c45.9,90,112.9,174.2,222.1,281.5c86.2,84.2,168.5,180,183.8,214.4c15.3,36.4,26.8,126.4,26.8,216.3c0,128.3,7.7,170.4,47.9,250.8l49.8,95.7l562.9-5.8c511.2-5.7,566.7-9.6,597.4-40.2c32.6-32.6,34.5-114.9,40.2-1311.5l3.8-1279l-99.6-65.1c-61.3-42.1-122.5-103.4-158.9-160.8l-57.4-93.8l-5.7-486.3l-5.7-484.4H8762h-162.7v427c0,526.5-13.4,589.7-158.9,731.4c-235.5,229.8-587.8,180-765.8-105.3c-40.2-63.2-42.1-95.7-51.7-555.2l-9.6-488.2l-166.6-5.7l-168.5-5.7v547.6c0,585.9-3.8,616.5-103.4,746.7c-57.4,74.7-212.5,158.9-321.7,174.2c-139.8,19.2-289.1-34.5-398.2-143.6c-143.6-143.6-153.2-197.2-153.2-809.9v-513.1H6139h-162.7v628v628l-49.8,99.6c-191.5,386.7-760.1,354.2-898-51.7c-23-68.9-28.7-199.1-28.7-695v-608.8H4837h-162.7v595.4c0,354.2-7.7,626.1-21.1,673.9c-51.7,208.7-248.9,358-465.2,358c-203-1.9-360-99.6-444.2-277.6c-45.9-93.8-45.9-103.4-45.9-721.8v-628H3537h-162.7l-5.7,551.4l-5.7,549.5l-57.4,105.3c-224,407.8-809.9,321.7-907.5-135.9c-11.5-53.6-21.1-312.1-21.1-582.1v-488.2H2214h-162.7v465.2c0,444.2-1.9,467.2-45.9,559.1c-86.2,187.6-264.2,291-476.7,273.8c-185.7-15.3-310.2-99.6-402.1-271.9c-40.2-74.7-42.1-105.3-47.9-551.4l-5.8-474.8H910.2H749.4v2803v2803l195.3,68.9c794.6,285.3,1803.5,478.7,2730.2,520.8c333.1,15.3,308.3,23,453.8-164.7c174.2-227.8,371.4-633.7,505.5-1037.7c70.8-214.4,124.4-275.7,222.1-256.6c68.9,13.4,143.6,91.9,143.6,153.2c0,53.6-105.3,367.6-199.1,591.6c-191.5,461.4-409.7,800.3-629.9,972.6l-93.8,74.7l-222.1-3.8C3730.4,2001.4,3588.7,1997.6,3535.1,1993.7z M4274.1-3244.6c70.8-53.6,74.7-95.7,74.7-691.2v-585.9h-162.7h-162.7v603.1v605l47.9,46C4122.9-3215.9,4222.5-3204.4,4274.1-3244.6z M5602.9-3267.6l47.9-46v-605v-603.1H5488h-162.7v584c0,698.8,3.8,712.2,168.5,716.1C5535.9-3219.7,5572.2-3235,5602.9-3267.6z M2949.2-3401.6c88.1-44,97.6-105.3,97.6-633.7v-486.3h-162.7h-162.7v522.7c0,547.6,1.9,557.2,86.2,603.1C2859.3-3367.2,2886.1-3367.2,2949.2-3401.6z M6874.2-3401.6c30.6-15.3,59.3-42.1,67-57.4c5.7-17.2,11.5-264.2,11.5-547.6v-515h-162.7h-162.7v503.5c0,536.1,5.7,574.4,95.7,620.3C6784.2-3367.2,6809.1-3367.2,6874.2-3401.6z M1677.9-3593.1l47.9-46v-442.3v-440.4h-162.7h-162.7v428.9v428.9l49.8,59.4C1513.3-3528,1609-3522.2,1677.9-3593.1z M8218.2-3595c46-47.9,46-53.6,51.7-488.2l5.7-438.4h-162.7h-164.6v440.4v442.3l47.9,46C8059.3-3528,8155-3528,8218.2-3595z"/><path d="M3089,1139.8c-40.2-42.1-42.1-63.2-42.1-361.9V458.2l49.8-38.3c70.8-55.5,162.7-51.7,220.2,9.6c42.1,45.9,45.9,65.1,51.7,298.7c7.7,292.9-1.9,365.7-57.4,417.4C3251.8,1199.2,3142.6,1197.3,3089,1139.8z"/><path d="M3738.1,1134.1c-36.4-46-40.2-76.6-40.2-356.1c0-296.8,1.9-304.4,47.9-350.4c68.9-70.8,164.7-65.1,227.8,11.5c47.9,57.4,49.8,65.1,49.8,335.1c0,359.9-23,409.7-181.9,409.7C3795.5,1183.9,3766.8,1170.5,3738.1,1134.1z"/><path d="M2480.2,1080.5c-84.2-36.4-103.4-111-103.4-388.7c0-275.7,21.1-350.4,113-386.7c47.9-21.1,70.8-21.1,118.7,0c91.9,36.4,113,111,113,386.7c0,283.4-19.1,352.3-107.2,388.7C2539.5,1111.1,2552.9,1111.1,2480.2,1080.5z"/><path d="M1789,984.7l-53.6-46l-5.7-294.9c-5.8-321.7,5.7-369.5,99.6-413.5c61.3-30.6,132.1-17.2,183.8,34.5c34.5,34.5,38.3,65.1,38.3,342.7c0,168.5-5.7,319.7-11.5,337c-15.3,36.4-105.3,86.2-158.9,86.2C1859.8,1030.7,1817.7,1009.6,1789,984.7z"/><path d="M1155.3,845c-61.3-24.9-80.4-116.8-80.4-388.7c0-271.9,11.5-329.3,74.7-377.2c51.7-40.2,151.3-28.7,202.9,23c45.9,45.9,47.9,51.7,47.9,354.2c0,302.5-1.9,308.3-47.9,354.2C1308.4,856.5,1220.4,871.8,1155.3,845z"/><path d="M4090.3,33.2c-1099-44-2848.9-252.7-2960-354.2c-84.2-74.7-49.8-243.1,53.6-268c28.7-7.7,143.6,0,254.6,19.1c1213.9,197.2,2423.9,296.8,3593.7,298.7h350.4l59.4-118.7c78.5-157,101.5-180,233.6-248.9c109.1-53.6,111.1-57.4,99.6-116.8c-7.6-34.5-17.2-63.2-19.2-67c-3.8-3.8-45.9,7.7-93.8,23c-245.1,84.2-503.6-21.1-614.6-247c-36.4-70.8-38.3-126.4-44-741l-5.7-662.5l45.9-53.6c65.1-74.7,172.3-74.7,235.5,0l45.9,51.7v622.3v624.2l55.5,55.5c70.8,70.8,149.3,72.7,220.2,7.7c32.5-30.6,49.8-65.1,49.8-105.3c0-70.8,90-172.3,153.2-172.3c78.5,0,151.3,53.6,170.4,130.2c11.5,38.3,55.5,216.4,99.6,392.5l80.4,321.7L6116-524c-21.1,28.7-105.3,86.2-189.5,128.3c-149.3,76.6-151.3,78.5-227.8,227.8C5576.1,69.6,5622,54.2,4992.1,50.4C4697.3,50.4,4291.4,40.8,4090.3,33.2z"/><path d="M4015.7-797.8c-109.1-38.3-206.8-126.4-264.2-239.3l-53.6-99.6V-1801v-666.3l47.9-44c65.1-61.3,166.6-61.3,225.9-3.8c42.1,42.1,42.1,51.7,51.7,695l9.6,652.9l45.9,36.4c67,53.6,147.4,45.9,214.4-19.1l55.5-55.5v-624.2V-2452l45.9-51.7c63.2-74.7,170.4-74.7,235.5,0l45.9,53.6l-5.8,664.4c-5.7,641.4-7.7,664.4-47.9,740.9c-55.5,103.4-193.4,224-289.1,252.7C4233.9-761.4,4107.6-765.2,4015.7-797.8z"/><path d="M2755.9-949c-174.2-47.9-321.6-195.3-354.2-354.2c-9.6-38.3-15.3-352.3-15.3-696.9V-2630l53.6-45.9c68.9-59.4,149.3-59.4,218.3,0l53.6,45.9l5.7,641.4c5.8,631.8,5.8,641.4,47.9,679.7c49.8,46,97.6,55.5,172.3,36.4c101.5-26.8,109.1-80.4,109.1-750.5v-605l47.9-46c59.4-61.3,143.6-61.3,214.4-1.9l53.6,45.9v668.2v666.3l-57.4,103.4C3194.3-991.1,2968.4-889.6,2755.9-949z"/><path d="M1381.2-1134.7c-105.3-47.9-201-135.9-254.6-237.4c-40.2-72.7-42.1-101.5-47.9-739l-5.8-664.4l44-49.8c67-74.6,147.4-84.2,222.1-21.1l59.4,49.8l5.8,641.4l5.7,643.3l53.6,45.9c70.8,59.4,155.1,59.4,214.4-1.9l47.9-46v-612.7c0-342.7,7.7-633.7,19.1-660.5c23-59.4,122.5-114.9,183.8-99.6c24.9,7.7,63.2,30.6,84.2,53.6c36.4,40.2,38.3,65.1,38.3,706.5v664.4l-53.6,101.5C1879-1130.9,1607.1-1031.3,1381.2-1134.7z"/><path d="M8063.1-1261.1c-114.9-40.2-155.1-191.5-70.8-270c24.9-23,51.7-42.1,63.2-42.1c9.6,0,49.8-9.6,90-21.1c120.6-32.6,128.3-68.9,128.3-673.9c0-499.7,1.9-524.6,38.3-564.8c51.7-55.5,120.6-70.8,183.8-38.3c101.5,47.9,105.3,72.8,99.6,685.4l-5.7,564.8l-57.4,103.4c-61.3,109.1-162.7,197.2-264.2,229.7C8178-1261.1,8095.7-1251.5,8063.1-1261.1z"/><path d="M7664.9-1961.8c-40.2-42.1-42.1-61.3-42.1-440.4c0-369.5,1.9-398.2,38.3-434.6c53.6-53.6,120.6-65.1,189.6-30.6c88.1,45.9,101.5,122.5,93.8,513.1c-5.7,327.4-7.6,338.9-51.7,386.8C7831.5-1902.5,7724.2-1898.7,7664.9-1961.8z"/></g></g>
</svg>