<?xml version="1.0" encoding="utf-8"?>
<!-- Uploaded to SVGRepo https://www.svgrepo.com -->
<!DOCTYPE svg PUBLIC "-//W3C//DTD SVG 1.1//EN" "http://www.w3.org/Graphics/SVG/1.1/DTD/svg11.dtd">
<svg width="1000px" height="1000px" viewBox="0 0 1000 1000" version="1.1" xmlns="http://www.w3.org/2000/svg" xmlns:xlink="http://www.w3.org/1999/xlink" x="0px" y="0px" enable-background="new 0 0 1000 1000" xml:space="preserve">

<g><g transform="translate(0.000000,512.000000) scale(0.100000,-0.100000)"><path d="M4894.7,4978.8c-42.1-34.5-51.7-65.1-61.3-162.8c-11.5-132.1-1.9-126.4-197.2-147.4c-252.7-28.7-566.8-172.3-744.8-342.7c-61.3-59.3-959.3-1200.5-1313.5-1671.5c-21.1-28.7-139.8-183.8-262.3-344.6c-124.5-160.8-245.1-333.2-271.9-384.8c-76.6-151.3-113-304.4-101.5-421.2c19.1-191.5,76.6-270,488.2-677.8c331.3-331.2,386.8-379.1,440.4-379.1c88.1,0,164.7,72.8,164.7,160.8c0,63.2-19.2,90-208.7,279.6l-210.6,210.6h396.3H3407l59.4,49.8c70.8,59.4,80.4,151.3,23,220.2l-36.4,46l-582.1,9.6l-580.1,9.6l-17.2,68.9c-11.5,47.9-7.7,93.8,11.5,153.2l28.7,84.2l467.2,9.6c314,5.7,480.6,17.2,507.4,32.5c61.3,34.5,90,120.6,65.1,187.6c-38.3,99.6-57.4,103.4-434.6,105.3c-193.4,0-350.4,5.7-350.4,15.3c0,7.7,51.7,80.4,116.8,162.7l114.9,147.4h201c235.5,0,315.9,24.9,350.4,113c21.1,47.9,21.1,70.8,1.9,116.8c-28.7,70.8-74.7,97.6-193.4,113l-90,11.5l310.2,402.1l308.3,402.1l9.6-756.3l9.6-756.3l59.4-124.5c170.4-356.1,513.1-641.4,921-765.9l135.9-40.2l7.7-199.1c5.7-178.1,9.6-203,51.7-247c65.1-68.9,168.5-68.9,233.6,0c40.2,42.1,45.9,68.9,51.7,247l7.7,199.1l137.9,40.2c394.4,118.7,735.2,400.2,907.5,744.8l70.8,143.6l9.6,756.3l9.6,758.2l308.3-402.1l310.2-402.1l-90-11.5c-118.7-15.3-164.6-42.1-193.4-113c-19.2-46-19.2-68.9,1.9-116.8c34.5-88.1,114.9-113,350.4-113h201l114.9-147.4c65.1-82.3,116.8-155.1,116.8-162.7c0-9.6-155.1-15.3-346.6-15.3c-189.6,0-360-7.7-379.1-19.2c-19.2-9.6-45.9-44-59.3-76.6c-28.7-68.9,0-160.8,65.1-197.2c26.8-15.3,193.4-26.8,507.4-32.5l467.2-9.6l28.7-84.2c19.2-59.4,23-105.3,11.5-153.2l-17.2-68.9l-580.1-9.6l-582.1-9.6l-36.4-46c-57.4-68.9-47.9-160.8,23-220.2l59.4-49.8h394.4h396.3l-210.6-210.6c-189.6-189.6-208.7-216.4-208.7-279.6c0-88.1,76.6-160.8,164.7-160.8c53.6,0,109.1,47.9,440.4,379.1c407.8,404,465.3,484.4,488.2,668.2c24.9,220.2-61.3,409.7-373.4,815.7c-122.5,160.8-241.3,315.9-262.3,344.6C7079.3,3108.1,6233.1,4188,6168,4253.1c-107.2,107.2-296.8,231.7-455.7,298.7c-128.3,53.6-404,126.4-484.4,126.4c-47.9,0-49.8,5.7-61.3,128.3c-7.7,109.1-17.2,135.9-61.3,172.3C5042.1,5034.3,4957.9,5034.3,4894.7,4978.8z M4833.4,4243.5c13.4-128.3,72.8-197.2,166.6-197.2s153.2,68.9,166.6,197.2s17.2,130.2,231.7,70.8c185.7-51.7,388.7-155.1,494-252.7l84.2-78.5v-901.8c0-555.3-7.6-928.6-19.2-972.7c-55.5-199.1-292.9-438.5-564.8-570.6c-294.9-141.7-492.1-141.7-785,0c-273.8,132.1-509.3,371.4-564.8,570.6c-11.5,44-19.2,421.2-19.2,982.2v911.4l93.8,88.1c157,147.4,421.2,256.6,626.1,260.4l78.5,1.9L4833.4,4243.5z"/><path d="M4452.4,3376.2c-105.3-42.1-134-181.9-55.5-258.5c40.2-42.1,63.2-47.9,197.2-47.9c132.1,0,155.1,5.7,191.5,44c42.1,44,55.5,130.2,30.6,195.3C4787.5,3381.9,4567.3,3422.1,4452.4,3376.2z"/><path d="M5258.5,3374.2c-97.6-55.5-118.7-189.5-42.1-262.3c38.3-36.4,67-42.1,193.4-42.1c130.2,0,153.2,5.7,193.4,47.9c61.3,59.3,61.3,143.6,1.9,214.4c-40.2,45.9-61.3,53.6-176.2,57.4C5352.3,3393.4,5279.6,3387.7,5258.5,3374.2z"/><path d="M4714.7,2349.9c-53.6-67-49.8-147.4,5.7-212.5c46-53.6,47.9-53.6,279.5-53.6s233.6,0,279.6,53.6c59.3,70.8,59.3,155.1-1.9,214.5c-44,45.9-57.4,47.9-285.3,47.9C4756.8,2399.7,4753,2399.7,4714.7,2349.9z"/><path d="M2652.6-35.8c-859.7-861.6-1141.2-1156.5-1173.7-1223.5c-65.1-139.8-78.5-277.6-78.5-798.4v-486.3l55.5-55.5c67-65.1,147.4-72.8,214.4-19.2c44,36.4,46,45.9,55.5,407.8l9.6,369.5l3052,5.7c2874,3.8,3055.8,5.7,3090.3,38.3c55.5,49.8,72.8,109.1,49.8,176.2c-44.1,122.5,168.5,114.9-3157.3,114.9c-2098.5,0-3025.2,5.7-3025.2,19.2c0,70.8,174.2,256.6,1169.9,1254.1C4119.2,975.1,4073.3,919.6,3973.7,1038.3c-38.3,46-65.1,59.4-118.7,59.4C3788,1097.7,3736.3,1049.8,2652.6-35.8z"/><path d="M6051.2,1072.8c-42.1-32.5-74.7-97.7-74.7-151.3c0-32.5,287.2-331.2,1108.6-1154.6C7694-843.8,8209-1374.2,8228.2-1410.6c32.5-59.4,36.4-132.1,46-618.4c9.6-553.4,9.6-553.4,55.5-589.7c61.3-49.8,141.7-46,206.8,9.6l53.6,45.9l5.7,484.4c5.7,518.9-7.7,677.8-74.7,817.6c-32.5,68.9-308.3,358-1173.7,1225.4C6277.1,1034.5,6212,1097.7,6148.8,1097.7C6112.4,1097.7,6068.4,1086.2,6051.2,1072.8z"/><path d="M850.9-2861.9c-128.3-51.7-250.8-147.4-314-247c-103.4-166.6-113-227.8-113-813.8v-532.3H314.7c-116.8-1.9-157-19.2-193.4-90c-36.4-67-26.8-120.6,32.5-180l55.5-55.5H5000h4790.6l55.5,55.5c59.4,59.4,68.9,113,32.6,180c-36.4,68.9-76.6,88.1-191.5,90H9578l-5.7,568.7l-5.7,570.6l-51.7,109.1c-61.3,132.1-185.7,260.4-312.1,323.6l-95.7,46H7776.3H6445.6l-95.7-47.9c-128.3-63.2-250.8-189.6-312.1-321.7l-51.7-109.1l-5.7-568.7l-5.7-570.6h-400.2h-400.2l-5.8,601.2l-5.7,601.2l-45.9,49.8c-65.1,68.9-168.5,68.9-233.6,0l-46-49.8l-5.7-601.2l-5.7-601.2h-400.2h-400.2l-5.8,568.7l-5.7,570.6l-55.5,114.9c-67,134-185.7,254.6-312.1,317.8l-91.9,46l-1311.6,3.8C1044.2-2829.3,923.6-2831.3,850.9-2861.9z M3523.8-3193.1c38.3-21.1,91.9-68.9,116.8-107.2c47.9-68.9,47.9-70.8,53.6-612.7l5.8-541.9H3451h-250.8v440.4v442.3l-47.9,46c-28.7,28.7-68.9,47.9-103.4,47.9c-162.7,0-174.2-38.3-174.2-555.3v-421.2h-248.9h-248.9v444.2c0,428.9-1.9,444.2-42.1,488.2c-59.3,63.2-166.6,59.4-227.8-5.7c-46-47.9-46-53.6-51.7-488.3l-5.8-438.5h-239.3h-237.4v423.1c0,427-7.7,476.8-74.7,528.5c-51.7,40.2-151.3,28.7-203-23l-47.9-46v-442.3v-440.4H998.3H747.5l5.7,541.9l5.7,543.8l49.8,76.6c97.7,145.5,30.6,139.8,1413,139.8C3430-3152.9,3454.8-3152.9,3523.8-3193.1z M9072.5-3185.5c36.4-17.2,90-65.1,116.8-107.2l51.7-76.6l5.7-543.8l5.7-541.9h-250.8h-248.9v440.4v442.3l-47.9,46c-51.7,51.7-151.3,63.2-202.9,23c-67-51.7-74.7-101.5-74.7-528.5v-423.1h-237.4h-239.3l-5.7,438.5c-5.7,434.6-5.7,440.4-51.7,488.3c-61.3,65.1-168.5,68.9-227.8,5.7c-40.2-42.1-42.1-63.2-46-482.5l-5.7-440.4l-243.2-5.7l-245.1-5.7v423.1c0,517-11.5,555.3-174.2,555.3c-34.5,0-74.7-19.2-103.4-47.9l-47.9-46v-442.3v-440.4H6549h-248.9l5.7,541.9c5.7,610.8,9.6,624.2,158.9,714.2l76.6,46h1231.1C8881.1-3152.9,9013.2-3156.8,9072.5-3185.5z"/></g></g>
</svg>