<?xml version="1.0" encoding="utf-8"?>
<!-- Uploaded to SVGRepo https://www.svgrepo.com -->
<!DOCTYPE svg PUBLIC "-//W3C//DTD SVG 1.1//EN" "http://www.w3.org/Graphics/SVG/1.1/DTD/svg11.dtd">
<svg width="1000px" height="1000px" viewBox="0 0 1000 1000" version="1.1" xmlns="http://www.w3.org/2000/svg" xmlns:xlink="http://www.w3.org/1999/xlink" x="0px" y="0px" enable-background="new 0 0 1000 1000" xml:space="preserve">

<g><g transform="translate(0.000000,512.000000) scale(0.100000,-0.100000)"><path d="M5132.2,5000.6c-40.3-30.7-53.8-73-88.4-263.1c-36.5-199.7-46.1-228.5-78.7-224.7c-19.2,0-142.1,17.3-272.7,34.6c-219,30.7-238.2,30.7-284.2,1.9c-26.9-19.2-55.7-51.9-67.2-74.9c-9.6-23-63.4-366.8-119.1-762.5l-99.9-720.2h-128.7c-224.7,0-151.7,363-660.7-3259.2c-245.8-1745.8-480.1-3405.2-518.6-3687.5l-71.1-514.7H1473.5c-1340.6-1.9-1304.1,1.9-1352.1-90.3c-36.5-67.2-26.9-121,32.6-180.5l55.7-55.7h4793.7h4791.8l49.9,44.2c73,61.5,73,176.7,0,238.2l-49.9,44.2H7759.5c-1117.8,0-2033.9,7.7-2033.9,15.4c0,7.7,34.6,261.2,76.8,562.7c71.1,516.6,78.8,547.4,124.8,589.6c103.7,88.4,255.4,23.1,267-115.2c3.8-40.3-9.6-182.5-28.8-316.9c-44.2-309.2-44.2-280.4,13.4-349.6c98-117.1,257.4-57.6,284.3,105.6c32.6,201.7,839.3,6270.6,843.1,6339.8c5.8,105.6-53.8,169-170.9,188.2c-71.1,9.6-84.5,19.2-84.5,53.8c0,23,44.2,347.6,96,720.2c53.8,372.6,96,701,96,729.8c0,57.6-53.8,128.7-109.5,146c-19.2,5.8-411,63.4-870,126.8c-459,63.4-858.5,121-885.4,126.8l-50,9.6l34.6,195.9c46.1,253.5,46.1,255.4-19.2,322.7C5278.1,5046.7,5201.3,5054.4,5132.2,5000.6z M5808.2,4059.5c589.6-82.6,1075.5-155.6,1079.4-159.4c9.6-7.7-163.2-1267.6-174.8-1281c-9.6-11.5-268.9,19.2-293.9,36.5c-21.1,11.5-13.4,97.9,32.7,432.1c63.4,445.6,61.5,482.1-25,539.7c-63.4,40.3-172.9,23-211.3-38.4c-17.3-25-53.8-218.9-90.3-470.5c-42.3-291.9-67.2-422.5-82.6-416.8c-11.5,3.8-80.7,13.4-149.8,21.1c-71.1,7.7-134.4,21.1-138.3,28.8c-5.8,9.6,17.3,207.4,49.9,441.7c55.7,397.6,57.6,426.4,26.9,472.5c-59.5,92.2-178.6,101.8-255.4,21.1c-32.7-34.6-49.9-119.1-97.9-462.9c-32.6-230.5-61.5-422.5-63.4-426.4c-7.7-5.8-309.2,32.7-318.8,40.3c-1.9,1.9,21.1,182.5,53.8,403.3c30.7,218.9,57.6,418.7,57.6,445.6c0,121-186.3,186.3-276.6,96c-38.4-38.4-51.9-101.8-117.2-576.2c-80.7-589.6-80.7-608.8,34.6-654.9c32.7-13.4,522.4-88.3,1085.1-167.1c964.1-134.4,1021.7-144,1021.7-180.5c0-38.4-660.7-5014.6-681.8-5131.7l-11.5-61.5l-65.3,28.8c-80.7,32.6-218.9,34.6-320.7,3.8c-99.9-30.7-253.5-169-291.9-265c-15.4-42.3-67.2-339.9-111.4-662.6l-80.7-585.8h-169c-165.2,0-169,0-159.4,44.2c38.4,176.7,165.2,1171.5,155.6,1246.5c-36.5,332.3-407.2,532-704.9,378.3c-94.1-46.1-217-190.1-243.9-280.4c-11.5-40.3-61.5-368.8-113.3-729.8l-90.3-658.8h-170.9h-169l11.5,61.5c48,280.4,182.5,1282.9,182.5,1365.5c0,57.6-13.4,136.4-28.8,172.9c-73,174.8-261.2,301.5-445.6,301.5c-55.7,0-101.8,7.7-101.8,19.2c0,26.9,42.3,316.9,48,322.6c1.9,1.9,558.9-73,1234.9-169c854.6-119.1,1244.5-167.1,1277.2-155.6c23.1,9.6,55.7,30.7,71.1,50c21.1,25,170.9,966,172.9,1090.9c0,55.7-103.7,147.9-169,147.9c-55.7,0-157.5-78.8-157.5-122.9c0-11.5-26.9-201.7-57.6-424.4c-32.7-220.9-57.6-403.3-57.6-405.3c0-5.8-309.2,44.2-315,51.9c-5.8,3.8,15.4,180.5,46.1,391.8c71.1,484,71.1,480.1,0,551.2c-49.9,48-69.1,55.7-121,46.1c-121-23.1-136.3-63.4-197.8-510.9c-30.7-222.8-59.6-412.9-65.3-420.6c-5.8-9.6-78.7-5.8-163.2,5.8l-153.6,21.1l5.8,57.6c3.8,32.7,26.9,203.6,53.8,380.3c57.6,403.3,57.6,449.4,3.8,507c-44.2,48-142.1,59.5-205.5,25c-55.7-28.8-73-99.9-128.7-508.9c-28.8-211.3-57.6-389.9-65.3-399.5c-5.8-7.7-78.7-3.8-159.4,7.7c-117.2,17.3-147.9,28.8-147.9,55.7c0,17.3,23,190.1,49.9,386c26.9,194,49.9,384.1,49.9,420.6c0,134.4-178.6,205.5-270.8,107.5c-38.4-40.3-51.9-103.7-101.8-472.5l-59.5-426.4l-97.9,11.5c-176.7,23.1-222.8,34.6-222.8,57.6c0,13.4,38.4,295.8,86.4,626.1c48,330.3,86.4,608.8,86.4,618.4c0,7.7,19.2,15.4,44.2,15.4c23,0,564.7-73,1204.2-163.2c639.5-90.3,1188.8-163.3,1221.5-163.3c36.5,0,74.9,17.3,101.8,46.1c40.3,42.3,53.8,109.5,119.1,572.3c82.6,578.1,80.7,612.6-26.9,658.7c-71.1,28.8-134.4,17.3-184.4-36.5c-30.7-32.7-48-117.2-96-460.9c-32.6-232.4-63.4-424.4-67.2-428.3c-5.8-5.8-305.4,32.6-313.1,40.3c-3.8,1.9,21.1,186.3,51.9,407.2c30.7,220.9,57.6,420.6,57.6,445.6c0,113.3-174.8,180.5-270.8,101.8c-40.3-30.7-49.9-78.8-105.6-462.9c-34.6-234.3-67.2-430.2-73-436c-9.6-9.6-301.5,26.9-309.2,38.4c-1.9,1.9,21.1,190.1,53.8,418.7c30.7,228.5,51.8,437.9,44.2,466.7c-13.4,51.9-98,107.5-163.3,107.5c-21.1,0-61.5-21.1-90.3-46.1c-51.8-42.3-55.7-63.4-113.3-464.8l-59.5-420.6l-122.9,3.8c-67.2,1.9-140.2,7.7-163.3,13.4l-42.3,11.5L4364,9.1c55.7,380.3,65.3,487.8,44.2,543.5c-19.2,48-119.1,90.3-180.5,76.8c-103.7-23-115.2-55.7-180.5-512.8c-32.7-236.2-67.2-428.3-78.7-428.3c-9.6,1.9-82.6,7.7-157.5,17.3c-111.4,11.5-140.2,21.1-140.2,48c0,50,170.9,1254.1,178.6,1263.7c5.8,3.8,562.7-71.1,1240.7-167.1c1152.3-163.3,1234.9-172.9,1288.7-144c73,38.4,82.6,71.1,163.2,649.2c44.2,322.7,59.5,491.7,48,522.4c-46.1,122.9-228.6,142.1-288.1,28.8c-11.5-19.2-46.1-220.9-78.8-445.6c-32.6-224.7-61.5-412.9-65.3-416.8c-11.5-9.6-268.9,19.2-293.8,34.6c-17.3,9.6-7.7,121,36.5,439.8c55.7,401.4,57.6,430.2,26.9,476.3c-30.7,46.1-99.9,84.5-153.7,84.5c-15.4,0-53.8-23-84.5-51.9c-55.7-51.9-59.6-65.3-115.2-474.4c-32.7-230.5-61.5-422.5-65.3-426.4c-1.9-3.8-74.9,3.8-157.5,17.3c-132.5,21.1-153.7,28.8-151.7,61.5c0,21.1,25,217,55.7,436l55.7,399.5l-38.4,51.9c-51.9,69.1-170.9,82.6-238.1,28.8c-42.3-34.6-51.9-74.9-107.6-462.9c-32.6-234.3-65.3-430.2-69.1-434c-5.8-5.8-78.7,0-165.2,13.4c-144,19.2-155.6,25-147.9,61.5c19.2,82.6,105.6,741.3,105.6,799c0,128.7-170.9,203.6-263.1,115.2c-53.8-48-51.9-42.3-113.3-489.7c-28.8-211.3-57.6-391.8-67.2-401.4c-15.4-17.3-280.4,13.4-301.5,36.5c-9.6,7.7,128.7,1064,163.2,1240.7c9.6,48,11.5,48,105.6,34.6c109.5-17.3,174.8,1.9,215.1,63.4c17.3,28.8,65.3,301.5,126.8,745.2c51.9,386,99.9,718.3,105.6,741.3c7.7,30.7,21.1,38.4,61.5,32.6C4713.5,4213.2,5218.6,4142.1,5808.2,4059.5z M3545.8-2942.9c32.7-30.7,48-67.2,48-113.3c0-36.5-42.3-361.1-96-722.1c-51.9-361.1-96-662.6-96-672.2c0-11.5-73-19.2-163.2-19.2s-163.2,5.8-163.2,15.4c0,7.7,46.1,339.9,103.7,739.4c92.2,653,107.6,731.7,147.9,774C3386.4-2877.5,3482.4-2879.5,3545.8-2942.9z M4857.5-3136.8c23.1-26.9,42.3-63.4,42.3-82.6c0-19.2-38.4-305.4-86.4-635.7c-48-330.3-86.4-605-86.4-608.8c0-1.9-73-5.8-163.2-5.8s-163.2,5.8-163.2,13.4c0,5.8,40.3,293.8,88.3,637.6c53.8,389.9,98,643.4,115.2,670.3C4663.6-3056.2,4780.7-3052.3,4857.5-3136.8z"/></g></g>
</svg>