<?xml version="1.0" encoding="utf-8"?>
<!-- Uploaded to SVGRepo https://www.svgrepo.com -->
<!DOCTYPE svg PUBLIC "-//W3C//DTD SVG 1.1//EN" "http://www.w3.org/Graphics/SVG/1.1/DTD/svg11.dtd">
<svg width="1000px" height="1000px" viewBox="0 0 1000 1000" version="1.1" xmlns="http://www.w3.org/2000/svg" xmlns:xlink="http://www.w3.org/1999/xlink" x="0px" y="0px" enable-background="new 0 0 1000 1000" xml:space="preserve">

<g><g transform="translate(0.000000,375.000000) scale(0.100000,-0.100000)"><path d="M6252.4,2246.6c-748.7-402.1-1623.8-1055.1-2301.6-1713.8C2847.8-539.5,2124-1736.3,1813.8-2994.3l-51.7-216.4h-342.8c-258.5,0-346.6,5.8-352.3,24.9c-3.8,11.5-68.9,639.6-143.6,1392.1C850.6-1041.2,783.6-395.9,777.9-361.4l-9.6,61.3l120.6-46c260.4-97.7,574.5-270,1003.4-549.6c185.7-122.5,306.4-189.6,340.8-189.6c76.6,0,145.5,78.5,145.5,164.7c0,57.4-15.3,82.3-84.3,149.4l-84.3,78.5L2148.9-170c-34.5,287.2-59.4,526.6-53.6,530.4c26.8,26.8,518.9-126.4,771.7-239.4c70.9-30.6,153.2-57.4,183.8-57.4c74.7,0,151.3,76.6,151.3,147.4c0,86.2-51.7,139.8-203,208.7c-442.3,201.1-1043.6,340.8-1175.7,271.9c-97.7-51.7-99.6-78.5-30.6-637.6c34.5-285.3,61.3-520.8,57.4-524.7c-1.9-1.9-76.6,36.4-164.7,90C1319.8-160.4,938.7,4.3,708.9,44.5c-141.7,24.9-206.8,7.7-256.6-67c-28.7-46-23-134,134-1708c91.9-915.3,170.4-1677.4,176.2-1694.6c5.7-19.2,32.5-51.7,59.4-72.8c49.8-38.3,61.3-38.3,4183.9-38.3h4136l55.5,55.5c59.4,59.3,68.9,113,32.6,180c-44,84.3-67,88.1-434.7,90H8443l13.4,158.9c36.4,453.8,197.2,1120.2,379.1,1583.6c67,172.3,248.9,557.2,258.5,549.6c1.9-3.8-15.3-157-42.1-340.8c-65.1-471-105.3-878.9-118.7-1223.6l-11.5-298.7l63.2-53.6c76.6-63.2,157-57.5,222.1,15.3c34.5,40.2,42.1,78.5,51.7,325.5c24.9,536.2,116.8,1277.2,254.7,2029.7c67,375.3,68.9,394.5,38.3,442.3c-70.8,109.2-181.9,97.7-691.3-70.9c-970.8-319.8-1819.1-842.5-2368.7-1461c-383-428.9-631.9-896.1-760.2-1426.6l-55.5-220.2l-806.1-5.7l-806.1-3.9l11.5,51.7c7.7,30.6,42.1,149.3,78.5,264.2C4492.6-1832,5218.4-914.8,6294.5-187.2C6600.9,21.5,7215.5,370,7273,370c7.7,0-101.5-118.7-243.2-262.3c-381.1-392.5-656.8-746.8-884.7-1145.1c-174.3-302.5-199.2-434.7-97.7-501.7c55.5-36.4,151.3-38.3,193.4-3.8c15.3,13.4,68.9,107.2,120.6,206.8c116.8,233.6,312.1,530.4,518.9,787c151.3,189.6,628.1,697,641.5,683.6c3.8-1.9-5.7-51.7-21.1-109.2s-34.5-158.9-40.2-224c-11.5-113-9.6-120.6,45.9-176.2c36.4-36.4,78.5-59.4,109.1-59.4c70.9,0,162.8,95.7,162.8,168.5c0,82.3,68.9,338.9,122.6,451.9l45.9,97.7l1.9-147.4c1.9-122.5,9.6-157,40.2-187.7c51.7-51.7,122.6-65.1,183.8-34.5c95.7,44,103.4,84.2,103.4,541.9c0,363.8-3.8,430.8-34.5,488.3c-53.6,107.2-113,113-360,28.7C6763.7,590.2,5614.7-156.5,4908.2-958.9c-551.5-626.2-930.6-1313.6-1127.8-2047l-51.7-195.3l-810-5.7c-773.6-3.9-808.1-1.9-808.1,30.6c0,19.2,28.7,143.6,65.1,275.7c227.9,833,698.9,1696.5,1350,2483.5C3782.2-108.7,4423.7,532.8,4743.5,799c231.7,193.4,674,532.3,802.3,616.6c42.1,24.9,15.3-17.2-99.6-168.5c-323.6-425.1-658.7-961.2-890.4-1422.7c-216.4-434.7-386.8-867.4-367.7-942.1c17.2-74.7,78.5-120.6,158.9-120.6c93.8,0,136,46,195.3,210.6c155.1,442.3,494,1095.3,829.1,1598.9c153.2,229.8,383,547.6,390.6,540c1.9-3.8-3.8-36.4-13.4-72.8c-30.6-103.4-74.7-377.2-88.1-547.6c-13.4-157-13.4-157,45.9-214.5c70.8-72.8,134-74.7,210.6-11.5c51.7,42.1,57.4,61.3,68.9,204.9c30.6,340.8,130.2,735.3,260.4,1016.8l55.5,118.7v-459.6c1.9-497.9,9.6-536.2,105.3-580.2c63.2-32.6,132.1-17.2,183.8,38.3c36.4,40.2,38.3,65.1,38.3,842.5v802.3l-47.9,46C6514.7,2363.4,6451.5,2353.8,6252.4,2246.6z M8372.1-715.7c-340.8-363.8-582.1-712.3-794.6-1143.2C7414.7-2188.2,7250-2665,7183-2994.3l-42.1-216.4H6576h-563l11.5,72.8c53.6,306.4,268.1,788.9,478.7,1083.8c394.5,549.6,999.5,1024.4,1754,1372.9c132.1,61.3,243.2,111.1,245.1,113C8506.2-568.2,8446.8-635.3,8372.1-715.7z M8638.3-1091c-271.9-610.8-459.6-1325.1-511.3-1939.7l-13.4-170.4l-321.7-5.7c-300.6-3.9-321.7-1.9-314,28.7c5.7,19.2,21.1,82.3,32.6,139.8c134,616.6,434.7,1265.7,821.5,1771.2c70.8,93.8,417.4,469.1,432.7,469.1C8766.6-798,8711-930.1,8638.3-1091z"/><path d="M500.2-3886.6c-88.1-67-95.7-168.5-19.2-245.1l55.5-55.5H5002h4465.4l55.5,55.5c76.6,76.6,68.9,178.1-19.2,245.1C9459.7-3852.2,544.2-3852.2,500.2-3886.6z"/><path d="M184.3-4535.8c-46-21.1-84.3-91.9-84.3-151.3c0-21.1,24.9-65.1,55.5-95.7l55.5-55.5H5002h4790.9l55.5,55.5c80.4,82.4,65.1,203-34.5,248.9C9750.8-4505.1,243.6-4507,184.3-4535.8z"/></g></g>
</svg>